<svg version="1.2" xmlns="http://www.w3.org/2000/svg" viewBox="0 0 200 200" width="200" height="200">
	<defs>
		<filter x="-50%" y="-50%" width="200%" height="200%" id="f1"> <feGaussianBlur stdDeviation="NaN"/> </filter>
	</defs>
	<style>
		.s0 { fill: #2c0000;stroke: #ffffff;stroke-miterlimit:10;stroke-width: 10 } 
		.s1 { fill: #8a029e;stroke: #7e0290;stroke-miterlimit:10;stroke-width: 10 } 
		.s2 { fill: #750286;stroke: #7e0290;stroke-miterlimit:10;stroke-width: 10 } 
		.s3 { filter: url(#f1);fill: #8a029e;stroke: #8a029e;stroke-miterlimit:10;stroke-width: 2 } 
		.s4 { fill: #750286;stroke: #750286;stroke-miterlimit:10;stroke-width: 10 } 
		.s5 { fill: #8a029e;stroke: #8a029e;stroke-miterlimit:10;stroke-width: 10 } 
		.s6 { fill: #2c0000 } 
		.s7 { fill: #ffffff;stroke: #7e0290;stroke-miterlimit:10;stroke-width: 8 } 
		.s8 { fill: #2c0000;stroke: #2c0000;stroke-miterlimit:10;stroke-width: 8 } 
		.s9 { filter: url(#f1);fill: #9900b0;stroke: #8a029e;stroke-miterlimit:10;stroke-width: 8 } 
		.s10 { fill: #9900b0;stroke: #7e0290;stroke-miterlimit:10;stroke-width: 4 } 
		.s11 { fill: #9900b0;stroke: #750286;stroke-miterlimit:10;stroke-width: 8 } 
		.s12 { fill: #2c0000;stroke: #2c0000;stroke-miterlimit:10;stroke-width: 4 } 
		.s13 { fill: #000000 } 
		.s14 { fill: #f9f9f9 } 
	</style>
	<path id="Form 2" fill-rule="evenodd" class="s0" d="m99 166c-38.16 0-69-30.84-69-69 0-38.16 30.84-69 69-69 38.16 0 69 30.84 69 69 0 38.16-30.84 69-69 69z"/>
	<path id="Form 8" fill-rule="evenodd" class="s1" d="m106.92 43.18l70.6 69.23z"/>
	<path id="Form 9" fill-rule="evenodd" class="s2" d="m86.43 45.14l-66.79 66.79z"/>
	<path id="Form 3" fill-rule="evenodd" class="s3" d="mNaNNaNcNaNNaNNaNNaNNaNNaNNaNNaNNaNNaNNaNNaNz"/>
	<path id="Form 5" fill-rule="evenodd" class="s2" d="m84.19 45.98l-52.48 55.84z"/>
	<path id="Form 6" fill-rule="evenodd" class="s1" d="m110.28 43.74l56.69 60.05z"/>
	<path id="Form 4" fill-rule="evenodd" class="s4" d="m96.95 58.3c-7.16 0-12.95-5.66-12.95-12.65 0-7 5.79-12.65 12.95-12.65 7.16 0 12.95 5.65 12.95 12.65 0 6.99-5.79 12.65-12.95 12.65z"/>
	<path id="Form 7" fill-rule="evenodd" class="s5" d="m99 123.54c-33.73 0-61-10.52-61-23.54 0-13.02 27.27-23.54 61-23.54 33.73 0 61 10.52 61 23.54 0 13.02-27.27 23.54-61 23.54z"/>
	<path id="Form 11" fill-rule="evenodd" class="s6" d="m133 85v26h-67v-26z"/>
	<path id="Form 12" fill-rule="evenodd" class="s7" d="m115 82l17.74 36.11z"/>
	<path id="Form 13" fill-rule="evenodd" class="s7" d="m65.89 111.4l15.91-29.51z"/>
	<path id="Form 15" fill-rule="evenodd" class="s7" d="m94.83 102.78l23.76-18.94z"/>
	<path id="Form 14" fill-rule="evenodd" class="s7" d="m79.99 85.5l16.06 12.44z"/>
	<path id="Form 25" fill-rule="evenodd" class="s5" d="m65.01 80.56h68.41z"/>
	<path id="Form 26" fill-rule="evenodd" class="s5" d="m64.85 118.24h71.8z"/>
	<path id="Form 17" fill-rule="evenodd" class="s8" d="m84.11 99l13.73 9.31z"/>
	<path id="Form 18" fill-rule="evenodd" class="s9" d="m0 0z"/>
	<path id="Form 19" fill-rule="evenodd" class="s10" d="m113.62 102.99l8.49 12.02z"/>
	<path id="Form 20" fill-rule="evenodd" class="s10" d="m116 102.91l-16 10.48z"/>
	<path id="Form 21" fill-rule="evenodd" class="s10" d="m75.41 112.32l8.78-9.19z"/>
	<path id="Form 22" fill-rule="evenodd" class="s10" d="m81.59 102.58l18.41 13z"/>
	<path id="Form 24" fill-rule="evenodd" class="s11" d="m16.22 112.62h165.3z"/>
	<path id="Form 23" fill-rule="evenodd" class="s12" d="m75 107.1l7-7.79z"/>
	<g id="raven">
		<path id="Path 1" fill-rule="evenodd" class="s13" d="m89.55 35.09c-0.02 0.02-0.04 0.24-0.03 0.49 0 0.25 0.04 0.61 0.09 0.8 0.05 0.18 0.23 0.62 0.39 0.96 0.17 0.34 0.48 0.87 0.68 1.19 0.2 0.31 0.35 0.59 0.33 0.62-0.01 0.03-0.24-0.16-0.5-0.43-0.26-0.26-0.61-0.67-0.78-0.9-0.17-0.23-0.53-0.78-0.8-1.22-0.27-0.43-0.59-0.95-0.72-1.14-0.2-0.31-0.24-0.35-0.29-0.26-0.02 0.06-0.06 0.28-0.08 0.5-0.02 0.3 0 0.49 0.09 0.79 0.08 0.25 0.23 0.56 0.42 0.83 0.17 0.24 0.59 0.76 0.95 1.15 0.36 0.4 1.01 1.05 1.44 1.46 0.44 0.4 1.03 0.89 1.33 1.08 0.3 0.2 0.83 0.51 1.19 0.7 0.35 0.19 0.78 0.39 0.95 0.44 0.17 0.06 0.31 0.12 0.33 0.15 0.01 0.02-0.09 0.07-0.22 0.1-0.15 0.04-0.49 0.05-0.84 0.04-0.43-0.02-0.7-0.07-0.99-0.17-0.21-0.08-0.53-0.21-0.7-0.3-0.17-0.08-0.47-0.26-0.65-0.39-0.19-0.13-0.52-0.43-0.74-0.66-0.21-0.23-0.44-0.5-0.49-0.6-0.06-0.1-0.07-0.18-0.04-0.18 0.03 0 0.21 0.09 0.41 0.21 0.19 0.12 0.49 0.29 0.66 0.38 0.17 0.08 0.37 0.18 0.45 0.21q0.13 0.04 0.09 0c-0.03-0.03-0.31-0.22-0.62-0.43-0.32-0.22-0.81-0.58-1.11-0.82-0.29-0.23-1-0.9-1.58-1.47-0.58-0.58-1.21-1.25-1.4-1.49-0.34-0.42-0.35-0.43-0.42-0.31-0.04 0.08-0.07 0.35-0.07 0.67 0 0.53 0 0.55 0.25 1.04 0.2 0.42 0.34 0.6 0.76 1.02 0.29 0.28 0.77 0.68 1.11 0.9 0.32 0.22 0.78 0.51 1.01 0.64 0.27 0.15 0.47 0.31 0.54 0.42 0.06 0.1 0.21 0.29 0.32 0.42 0.12 0.14 0.2 0.26 0.18 0.27-0.03 0.01-0.24-0.06-0.47-0.16-0.23-0.1-0.69-0.32-1.02-0.49-0.32-0.16-1.04-0.54-1.58-0.84-0.54-0.31-1.24-0.71-1.55-0.9-0.35-0.21-0.58-0.31-0.59-0.27-0.01 0.03 0.03 0.23 0.1 0.43 0.06 0.2 0.2 0.51 0.3 0.68 0.1 0.17 0.28 0.42 0.38 0.55 0.11 0.13 0.35 0.36 0.54 0.52 0.19 0.15 0.56 0.41 0.82 0.56 0.26 0.16 0.77 0.41 1.12 0.56 0.63 0.26 0.65 0.27 0.89 0.62 0.14 0.19 0.23 0.37 0.21 0.38-0.03 0.01-0.35-0.02-0.72-0.08-0.38-0.06-1.13-0.2-1.67-0.31-0.54-0.11-1.01-0.2-1.04-0.19-0.02 0.01 0.06 0.16 0.2 0.33 0.13 0.17 0.36 0.42 0.51 0.56 0.14 0.14 0.46 0.37 0.71 0.51 0.24 0.14 0.59 0.31 0.78 0.39 0.19 0.07 0.5 0.18 0.7 0.24 0.21 0.06 0.6 0.15 0.88 0.19 0.28 0.05 0.59 0.08 0.69 0.08 0.15 0.01 0.27 0.08 0.55 0.33q0.37 0.32 0.3 0.37c-0.04 0.02-0.87 0.04-1.85 0.04h-1.78q0.52 0.52 0.85 0.72c0.22 0.15 0.61 0.35 0.87 0.45 0.27 0.1 0.71 0.22 0.99 0.27 0.28 0.05 0.74 0.09 1.02 0.09 0.28 0 0.74-0.04 1.02-0.09 0.28-0.04 0.81-0.17 1.18-0.28 0.38-0.12 0.97-0.32 1.33-0.47 0.36-0.14 0.89-0.36 1.19-0.5 0.29-0.14 0.55-0.23 0.58-0.2 0.02 0.02-0.13 0.17-0.34 0.33-0.21 0.16-0.61 0.44-0.89 0.61-0.28 0.18-0.79 0.46-1.13 0.62-0.34 0.17-0.87 0.4-1.16 0.51-0.3 0.12-0.91 0.33-1.36 0.48-0.45 0.15-1.04 0.33-1.31 0.4-0.27 0.08-0.5 0.16-0.5 0.18 0 0.03 0.15 0.1 0.33 0.16 0.18 0.07 0.49 0.16 0.69 0.21q0.37 0.09 1.13 0.09c0.61 0 0.86-0.03 1.25-0.13 0.26-0.07 0.76-0.26 1.1-0.42 0.34-0.16 0.86-0.45 1.16-0.64 0.29-0.18 0.9-0.59 1.34-0.91 0.44-0.32 0.82-0.56 0.83-0.53 0.01 0.02-0.4 0.46-0.92 0.97-0.52 0.52-1.2 1.14-1.51 1.39-0.31 0.25-0.83 0.65-1.16 0.9-0.32 0.24-0.6 0.45-0.62 0.47-0.01 0.01 0.13 0.01 0.31-0.02 0.19-0.02 0.53-0.1 0.75-0.17 0.23-0.08 0.58-0.23 0.79-0.33 0.21-0.11 0.63-0.35 0.92-0.55 0.3-0.19 0.7-0.47 0.9-0.63 0.21-0.15 0.39-0.27 0.41-0.27q0.04 0.02 0.05 0.16c0 0.08-0.04 0.2-0.08 0.27-0.04 0.06-0.37 0.32-0.72 0.57-0.35 0.25-1.66 1.13-2.9 1.95-1.25 0.83-2.89 1.9-3.65 2.37-0.76 0.48-1.71 1.08-2.12 1.32-0.4 0.25-1 0.58-1.33 0.75-0.42 0.22-0.57 0.33-0.5 0.36 0.04 0.02 0.3 0.08 0.56 0.14 0.34 0.07 0.61 0.08 0.9 0.06 0.24-0.02 0.66-0.1 0.94-0.18 0.28-0.08 0.73-0.25 1-0.37 0.27-0.12 0.5-0.2 0.5-0.18 0 0.02-0.17 0.21-0.38 0.41-0.22 0.2-0.6 0.52-0.86 0.71q-0.47 0.34-0.4 0.39c0.03 0.03 0.31 0.07 0.61 0.08q0.55 0.02 0.97-0.07c0.23-0.05 0.59-0.17 0.79-0.27 0.2-0.09 0.49-0.25 0.64-0.35 0.14-0.1 0.28-0.16 0.31-0.14 0.02 0.03-0.04 0.14-0.13 0.26-0.09 0.11-0.26 0.32-0.39 0.45l-0.23 0.23q0.33 0.09 0.56 0.08c0.17 0 0.4-0.05 0.57-0.12 0.15-0.07 0.41-0.22 0.56-0.34 0.16-0.12 0.49-0.49 0.77-0.86 0.27-0.35 0.69-0.93 0.93-1.29 0.25-0.35 0.54-0.74 0.65-0.87 0.11-0.12 0.32-0.32 0.46-0.44 0.15-0.12 0.3-0.22 0.33-0.22 0.03 0 0.05 0.11 0.06 0.24 0 0.13 0.06 0.37 0.13 0.52l0.13 0.29c0.19-0.44 0.29-0.61 0.35-0.67q0.09-0.09 0.13-0.1c0.03 0 0.07 0.1 0.11 0.22 0.05 0.16 0.35 0.49 1.21 1.37 0.64 0.63 1.15 1.19 1.15 1.23q0 0.06-0.01 0.07c-0.01 0-0.13-0.04-0.27-0.09-0.14-0.05-0.31-0.09-0.39-0.09-0.08 0.01-0.26 0.08-0.41 0.18q-0.27 0.17-0.38 0.41c-0.07 0.14-0.12 0.36-0.12 0.55v0.31c0.18-0.24 0.31-0.35 0.41-0.4 0.1-0.06 0.27-0.18 0.37-0.29q0.18-0.19 0.28-0.16c0.06 0.02 0.29 0.06 0.53 0.09 0.23 0.03 0.79 0.05 1.24 0.05l0.82-0.01c0.35 0.39 0.52 0.54 0.61 0.6 0.08 0.05 0.2 0.18 0.25 0.29q0.1 0.2 0.14 0.12c0.02-0.03 0.04-0.19 0.04-0.35 0-0.15-0.04-0.38-0.1-0.51-0.06-0.12-0.19-0.3-0.3-0.39-0.1-0.09-0.3-0.21-0.44-0.27-0.21-0.09-0.32-0.11-0.63-0.07-0.21 0.02-0.46 0.01-0.6-0.02-0.2-0.06-0.31-0.14-0.62-0.5-0.2-0.25-0.56-0.69-0.79-0.99-0.23-0.31-0.4-0.58-0.39-0.61q0.03-0.06 0.14 0c0.11 0.05 0.12 0.05 0.03-0.18-0.05-0.14-0.08-0.38-0.08-0.54 0-0.16 0.05-0.46 0.11-0.65 0.06-0.21 0.26-0.57 0.47-0.87 0.19-0.29 0.37-0.51 0.39-0.5 0.03 0.02-0.07 0.26-0.21 0.55-0.13 0.29-0.29 0.67-0.34 0.86-0.04 0.19-0.08 0.48-0.09 0.65 0 0.17 0.02 0.33 0.05 0.35 0.02 0.03 0.1-0.02 0.18-0.1l0.14-0.14c0.14 0.2 0.65 0.69 1.21 1.22 0.7 0.66 1.01 0.98 0.97 1.02q-0.06 0.05-0.44-0.02c-0.33-0.07-0.41-0.06-0.62 0.01-0.13 0.05-0.24 0.12-0.24 0.15 0 0.03 0.23 0.05 0.61 0.04 0.59-0.01 0.61 0 1.01 0.2 0.41 0.21 0.42 0.21 1.11 0.21h0.69c0.35 0.35 0.57 0.56 0.72 0.69 0.15 0.13 0.28 0.23 0.3 0.21 0.01-0.01 0.03-0.14 0.02-0.28 0-0.14-0.05-0.35-0.1-0.48-0.06-0.12-0.17-0.28-0.24-0.35-0.08-0.07-0.28-0.19-0.45-0.27-0.29-0.14-0.34-0.15-0.76-0.11-0.35 0.03-0.49 0.02-0.62-0.05-0.09-0.04-0.53-0.44-0.98-0.88-0.44-0.44-0.8-0.82-0.8-0.85q0.01-0.05 0.08-0.03c0.05 0.01 0.13 0.05 0.18 0.07 0.09 0.04 0.09 0.02 0.05-0.13-0.03-0.09-0.06-0.36-0.06-0.59 0-0.36 0.03-0.49 0.2-0.87 0.11-0.25 0.22-0.45 0.25-0.45 0.03-0.01 0.1 0.1 0.14 0.24 0.07 0.19 0.1 0.23 0.16 0.17 0.03-0.05 0.18-0.34 0.33-0.65 0.22-0.46 0.36-0.65 0.75-1.07 0.26-0.28 0.59-0.66 0.73-0.85 0.14-0.18 0.35-0.55 0.47-0.8 0.12-0.26 0.22-0.51 0.22-0.55q0.01-0.08 0.07-0.09c0.04 0 0.12 0.1 0.18 0.21l0.11 0.22c0.18-0.62 0.23-1 0.25-1.52 0.04-0.74 0.05-0.78 0.15-0.75 0.07 0.01 0.18 0.05 0.25 0.07 0.13 0.05 0.13 0.04-0.07-0.38-0.11-0.23-0.19-0.44-0.17-0.46 0.01-0.03 0.1-0.01 0.19 0.04 0.1 0.05 0.18 0.08 0.2 0.07 0.01-0.01-0.03-0.22-0.09-0.46-0.06-0.25-0.24-0.72-0.39-1.04-0.16-0.31-0.28-0.59-0.28-0.6 0-0.02 0.09-0.01 0.2 0.02 0.1 0.04 0.19 0.04 0.19 0.02q0-0.05-0.08-0.16c-0.04-0.06-0.13-0.27-0.19-0.46-0.07-0.2-0.12-0.44-0.12-0.54 0-0.1 0.03-0.29 0.07-0.41 0.04-0.12 0.17-0.33 0.29-0.45 0.13-0.12 0.38-0.29 0.57-0.38 0.19-0.09 0.53-0.2 0.76-0.25 0.27-0.05 0.62-0.08 0.95-0.07 0.32 0.01 0.52 0 0.52-0.04 0-0.03-0.07-0.15-0.16-0.28-0.08-0.12-0.26-0.31-0.38-0.4-0.12-0.1-0.37-0.25-0.56-0.34-0.28-0.13-0.46-0.16-1.09-0.2-0.7-0.04-0.77-0.06-1.1-0.24-0.21-0.12-0.51-0.23-0.75-0.27-0.31-0.05-0.51-0.05-0.93 0q-0.54 0.07-0.88 0.23c-0.18 0.08-0.45 0.23-0.59 0.33-0.14 0.09-0.43 0.34-0.64 0.55-0.21 0.2-0.36 0.4-0.35 0.43q0.04 0.05 0.14 0.05 0.11 0.01 0.12 0.05c0 0.02-0.1 0.16-0.21 0.32-0.11 0.16-0.25 0.37-0.3 0.48-0.06 0.11-0.12 0.26-0.14 0.33-0.03 0.12-0.03 0.12 0.18 0.04 0.12-0.05 0.22-0.08 0.24-0.06 0.01 0.02-0.02 0.13-0.09 0.24-0.06 0.11-0.24 0.34-0.41 0.51-0.16 0.16-0.32 0.3-0.36 0.3-0.04 0-0.3-0.18-0.58-0.4-0.28-0.23-0.93-0.82-1.44-1.32-0.7-0.69-1.01-0.96-1.25-1.07-0.17-0.08-0.84-0.29-1.49-0.46l-1.19-0.32c-0.66-0.6-1.13-1.06-1.48-1.42-0.34-0.35-0.79-0.83-0.99-1.06-0.2-0.23-0.52-0.64-0.72-0.9-0.2-0.27-0.53-0.72-0.72-1-0.19-0.29-0.37-0.51-0.39-0.49z"/>
		<path id="Path 2" fill-rule="evenodd" class="s14" d="m92.79 40.27c0.01 0.03 0.2 0.24 0.42 0.46 0.23 0.22 0.57 0.5 0.75 0.62 0.19 0.12 0.52 0.3 0.74 0.4 0.22 0.1 0.67 0.27 1.01 0.37l0.63 0.18c0.17 0.4 0.34 0.65 0.49 0.82 0.24 0.26 0.26 0.29 0.14 0.29-0.07 0.01-0.23-0.03-0.37-0.08q-0.22-0.08-0.24-0.03c0 0.03 0.13 0.16 0.27 0.29 0.15 0.12 0.4 0.27 0.57 0.33 0.16 0.07 0.34 0.12 0.39 0.12 0.06 0 0.14 0.02 0.19 0.05q0.1 0.04-0.12 0.11c-0.1 0.03-0.25 0.06-0.32 0.06q-0.12 0.01-0.16 0.06c-0.01 0.03 0.11 0.13 0.27 0.22 0.17 0.09 0.39 0.18 0.5 0.2 0.11 0.02 0.3 0 0.45-0.05 0.14-0.05 0.28-0.09 0.31-0.09q0.04 0.01-0.09 0.14c-0.07 0.08-0.11 0.16-0.09 0.18 0.03 0.03 0.24 0.06 0.48 0.07 0.24 0.01 0.66-0.02 0.94-0.07 0.28-0.05 0.52-0.11 0.54-0.13q0.02-0.03-0.03-0.05c-0.03-0.02-0.33-0.19-0.68-0.39-0.34-0.21-0.78-0.5-0.99-0.65-0.2-0.15-0.78-0.69-1.3-1.2-0.51-0.52-1-0.98-1.1-1.02-0.09-0.05-0.71-0.26-1.38-0.47-0.67-0.21-1.44-0.47-1.72-0.59-0.28-0.12-0.5-0.19-0.5-0.15zm12.09 0.51q-0.22 0.38-0.14 0.4c0.04 0.02 0.19 0.01 0.33-0.03 0.14-0.03 0.7-0.07 1.24-0.09 0.54-0.01 1-0.03 1.02-0.05 0.01-0.01-0.1-0.1-0.26-0.2-0.15-0.09-0.41-0.21-0.56-0.25-0.16-0.05-0.54-0.1-0.85-0.12l-0.56-0.03zm-1.46-0.19c-0.06 0.06-0.11 0.13-0.11 0.17 0 0.03 0.05 0.12 0.12 0.2 0.1 0.11 0.17 0.14 0.27 0.12 0.08-0.02 0.18-0.1 0.21-0.18 0.07-0.12 0.06-0.16-0.04-0.29-0.06-0.07-0.16-0.14-0.22-0.14-0.07 0-0.17 0.05-0.23 0.12zm-13.96 1.6c0 0.03 0.08 0.19 0.17 0.35 0.09 0.15 0.27 0.39 0.41 0.53 0.13 0.13 0.39 0.34 0.58 0.46 0.19 0.13 0.51 0.28 0.71 0.35 0.32 0.11 0.48 0.12 1.33 0.12 0.89 0 0.98-0.01 1.38-0.15 0.23-0.09 0.48-0.2 0.55-0.24q0.12-0.08 0.13-0.13c0-0.02-0.42-0.1-0.92-0.17-0.51-0.08-1.17-0.19-1.48-0.25-0.31-0.06-0.85-0.2-1.19-0.3-0.34-0.1-0.86-0.29-1.15-0.41-0.3-0.13-0.53-0.2-0.52-0.16zm12.54 0.5c-0.11 0.22-0.32 0.5-0.57 0.74q-0.37 0.37-0.31 0.41c0.04 0.02 0.22 0 0.41-0.04 0.18-0.03 0.38-0.08 0.43-0.11q0.1-0.05 0.13-0.04c0.01 0.01-0.06 0.16-0.17 0.33-0.1 0.17-0.18 0.33-0.16 0.35 0.01 0.02 0.1-0.01 0.19-0.07l0.17-0.11 0.09 0.93c0.17-0.2 0.23-0.26 0.25-0.26 0.01 0 0.04 0.1 0.06 0.22 0.02 0.11 0.11 0.37 0.2 0.58 0.1 0.2 0.27 0.47 0.38 0.6 0.11 0.14 0.22 0.22 0.24 0.2 0.01-0.02 0.03-0.24 0.03-0.48-0.01-0.25 0.02-0.44 0.05-0.44 0.03 0 0.13 0.12 0.22 0.27 0.09 0.15 0.23 0.41 0.31 0.58 0.08 0.17 0.18 0.43 0.22 0.58 0.04 0.15 0.09 0.27 0.13 0.27 0.03 0 0.1-0.16 0.16-0.35 0.07-0.23 0.12-0.52 0.12-0.81 0-0.25-0.02-0.57-0.04-0.72-0.04-0.26-0.04-0.27 0.07-0.21q0.11 0.05 0.14 0c0.01-0.03-0.09-0.29-0.23-0.57-0.14-0.28-0.28-0.49-0.31-0.48-0.03 0.02-0.06 0.11-0.06 0.2q0 0.15-0.05 0.17c-0.03 0-0.14-0.2-0.24-0.45-0.1-0.25-0.22-0.47-0.26-0.48-0.05-0.03-0.06 0.1-0.05 0.53q0.01 0.55-0.05 0.55c-0.03-0.01-0.13-0.18-0.24-0.37-0.1-0.19-0.2-0.47-0.22-0.63-0.02-0.16-0.06-0.28-0.09-0.28-0.02 0-0.09 0.09-0.15 0.21l-0.1 0.21q-0.07-0.45-0.1-0.68l-0.04-0.28-0.27 0.34c0-0.59-0.02-0.76-0.06-0.76-0.03 0-0.13 0.16-0.23 0.35zm-6.33 2.04c-0.01 0.02-0.36 0.07-0.78 0.12-0.42 0.04-1.22 0.11-1.78 0.15-0.56 0.03-1.15 0.07-1.32 0.08-0.26 0.02-0.28 0.04-0.22 0.12 0.04 0.05 0.26 0.18 0.49 0.3 0.26 0.13 0.59 0.24 0.85 0.28 0.33 0.06 0.53 0.06 0.9 0.01 0.36-0.04 0.6-0.12 0.94-0.28 0.24-0.12 0.57-0.32 0.73-0.44 0.15-0.12 0.28-0.25 0.29-0.29q0-0.06-0.03-0.07-0.04 0-0.07 0.02zm6.54 2.27c-0.02 0.05-0.03 0.64-0.03 1.33 0 0.79 0.02 1.24 0.05 1.24q0.06-0.01 0.13-0.13c0.04-0.07 0.12-0.26 0.19-0.43l0.12-0.31c0.18 0.48 0.21 0.71 0.21 1.05 0 0.3 0.03 0.5 0.06 0.5 0.03 0 0.14-0.1 0.25-0.21 0.1-0.12 0.25-0.31 0.32-0.43 0.08-0.11 0.15-0.28 0.18-0.36q0.04-0.17-0.03-0.12-0.07 0.05-0.1-0.14c-0.01-0.1-0.03-0.32-0.04-0.49l-0.02-0.31-0.22 0.24c-0.19-0.73-0.21-0.77-0.29-0.71-0.04 0.04-0.08 0.13-0.08 0.21 0 0.08-0.02 0.18-0.04 0.22q-0.05 0.06-0.22-0.31c-0.09-0.22-0.2-0.51-0.23-0.66-0.03-0.14-0.08-0.26-0.12-0.26q-0.05 0-0.09 0.08zm-2.02 1.46c-0.21 0.19-0.51 0.48-0.69 0.64-0.17 0.17-0.31 0.33-0.29 0.36 0.02 0.03 0.14 0 0.3-0.08 0.14-0.08 0.35-0.22 0.44-0.3 0.1-0.09 0.28-0.29 0.39-0.44 0.12-0.16 0.23-0.33 0.26-0.38q0.04-0.1 0-0.13c-0.02-0.01-0.21 0.14-0.41 0.33zm0.96 1.06c-0.28 0.27-0.5 0.54-0.5 0.59q0 0.08 0.04 0.08c0.03 0 0.16-0.07 0.3-0.15 0.14-0.09 0.32-0.25 0.41-0.36 0.08-0.11 0.19-0.29 0.24-0.41 0.05-0.11 0.08-0.22 0.08-0.24q0-0.02-0.04-0.02c-0.02 0-0.26 0.23-0.53 0.51zm-2.29 1.29c-0.18 0.12-0.4 0.29-0.48 0.39-0.09 0.1-0.14 0.19-0.12 0.2 0.03 0.02 0.17-0.03 0.33-0.1 0.15-0.07 0.35-0.21 0.43-0.29 0.07-0.09 0.17-0.21 0.21-0.27q0.05-0.09 0.01-0.12c-0.02-0.02-0.19 0.07-0.38 0.19zm-6.04 2.79c-0.18 0.12-0.51 0.36-0.73 0.51-0.21 0.16-0.55 0.43-0.75 0.59-0.19 0.16-0.33 0.31-0.3 0.32 0.04 0.02 0.27-0.11 0.53-0.29 0.25-0.17 0.75-0.54 1.1-0.81 0.35-0.28 0.63-0.51 0.63-0.53q-0.02-0.01-0.08-0.01c-0.03-0.01-0.21 0.1-0.4 0.22zm0.29 1.23c-0.61 0.62-1.09 1.15-1.08 1.18q0.02 0.06-0.04 0.08-0.06 0.03-0.01 0.03c0.03 0.01 0.28-0.2 0.56-0.46 0.28-0.26 0.78-0.78 1.1-1.14 0.33-0.37 0.6-0.7 0.6-0.75q0.01-0.07 0-0.07c-0.01 0-0.52 0.5-1.13 1.13z"/>
	</g>
</svg>